<svg xmlns="http://www.w3.org/2000/svg" xmlns:xlink="http://www.w3.org/1999/xlink" width="375" zoomAndPan="magnify" viewBox="0 0 375 374.999991" height="374.999991" preserveAspectRatio="xMidYMid meet" version="1.0"><defs><clipPath id="id1"><path d="M 119 134.8125 L 256 134.8125 L 256 180 L 119 180 Z M 119 134.8125 " clip-rule="nonzero"/></clipPath><clipPath id="id2"><path d="M 112.5 195 L 262.5 195 L 262.5 240.5625 L 112.5 240.5625 Z M 112.5 195 " clip-rule="nonzero"/></clipPath></defs><g clip-path="url(#id1)"><path fill="rgb(0%, 0%, 0%)" d="M 122.429688 179.597656 L 253.039062 179.597656 C 254.441406 179.597656 255.375 178.660156 255.375 177.253906 L 255.375 176.785156 C 254.90625 154.039062 224.066406 134.8125 187.617188 134.8125 C 150.933594 134.8125 119.859375 154.273438 119.859375 177.253906 C 120.09375 178.660156 121.027344 179.597656 122.429688 179.597656 Z M 187.617188 139.503906 C 219.859375 139.503906 248.363281 155.679688 250.46875 174.910156 L 124.765625 174.910156 C 126.867188 155.914062 155.375 139.503906 187.617188 139.503906 Z M 187.617188 139.503906 " fill-opacity="1" fill-rule="nonzero"/></g><path fill="rgb(0%, 0%, 0%)" d="M 145.558594 162.246094 C 145.558594 162.558594 145.5 162.855469 145.382812 163.144531 C 145.265625 163.429688 145.09375 163.683594 144.875 163.90625 C 144.65625 164.125 144.402344 164.292969 144.117188 164.414062 C 143.832031 164.53125 143.535156 164.589844 143.222656 164.589844 C 142.914062 164.589844 142.617188 164.53125 142.328125 164.414062 C 142.042969 164.292969 141.789062 164.125 141.570312 163.90625 C 141.351562 163.683594 141.183594 163.429688 141.066406 163.144531 C 140.945312 162.855469 140.886719 162.558594 140.886719 162.246094 C 140.886719 161.9375 140.945312 161.636719 141.066406 161.347656 C 141.183594 161.0625 141.351562 160.808594 141.570312 160.589844 C 141.789062 160.367188 142.042969 160.199219 142.328125 160.082031 C 142.617188 159.960938 142.914062 159.902344 143.222656 159.902344 C 143.535156 159.902344 143.832031 159.960938 144.117188 160.082031 C 144.402344 160.199219 144.65625 160.367188 144.875 160.589844 C 145.09375 160.808594 145.265625 161.0625 145.382812 161.347656 C 145.5 161.636719 145.558594 161.9375 145.558594 162.246094 Z M 145.558594 162.246094 " fill-opacity="1" fill-rule="nonzero"/><path fill="rgb(0%, 0%, 0%)" d="M 157.242188 155.210938 C 157.242188 155.523438 157.183594 155.820312 157.066406 156.109375 C 156.945312 156.398438 156.777344 156.648438 156.558594 156.871094 C 156.339844 157.089844 156.085938 157.257812 155.800781 157.378906 C 155.515625 157.496094 155.214844 157.558594 154.90625 157.558594 C 154.597656 157.558594 154.296875 157.496094 154.011719 157.378906 C 153.726562 157.257812 153.472656 157.089844 153.253906 156.871094 C 153.035156 156.648438 152.867188 156.398438 152.746094 156.109375 C 152.628906 155.820312 152.570312 155.523438 152.570312 155.210938 C 152.570312 154.902344 152.628906 154.601562 152.746094 154.316406 C 152.867188 154.027344 153.035156 153.773438 153.253906 153.554688 C 153.472656 153.335938 153.726562 153.164062 154.011719 153.046875 C 154.296875 152.925781 154.597656 152.867188 154.90625 152.867188 C 155.214844 152.867188 155.515625 152.925781 155.800781 153.046875 C 156.085938 153.164062 156.339844 153.335938 156.558594 153.554688 C 156.777344 153.773438 156.945312 154.027344 157.066406 154.316406 C 157.183594 154.601562 157.242188 154.902344 157.242188 155.210938 Z M 157.242188 155.210938 " fill-opacity="1" fill-rule="nonzero"/><path fill="rgb(0%, 0%, 0%)" d="M 177.101562 145.832031 C 176.867188 145.597656 176.402344 145.597656 176.167969 145.597656 C 174.765625 145.597656 173.832031 146.535156 173.832031 147.941406 C 173.832031 149.351562 175 150.289062 176.167969 150.289062 C 177.101562 150.289062 177.804688 149.820312 178.269531 148.882812 C 178.503906 148.648438 178.503906 148.179688 178.503906 147.941406 C 178.269531 147.238281 177.804688 146.300781 177.101562 145.832031 Z M 177.101562 145.832031 " fill-opacity="1" fill-rule="nonzero"/><path fill="rgb(0%, 0%, 0%)" d="M 187.617188 159.902344 C 186.914062 159.902344 186.449219 160.136719 185.980469 160.605469 C 185.515625 161.074219 185.28125 161.542969 185.28125 162.246094 C 185.28125 163.183594 185.746094 163.886719 186.683594 164.355469 C 186.914062 164.589844 187.382812 164.589844 187.617188 164.589844 C 189.019531 164.589844 189.953125 163.652344 189.953125 162.246094 C 189.953125 160.839844 189.019531 159.902344 187.617188 159.902344 Z M 187.617188 159.902344 " fill-opacity="1" fill-rule="nonzero"/><path fill="rgb(0%, 0%, 0%)" d="M 199.300781 150.289062 C 199.300781 150.597656 199.238281 150.898438 199.121094 151.183594 C 199.003906 151.472656 198.832031 151.726562 198.613281 151.945312 C 198.394531 152.164062 198.144531 152.335938 197.855469 152.453125 C 197.570312 152.574219 197.273438 152.632812 196.960938 152.632812 C 196.652344 152.632812 196.355469 152.574219 196.070312 152.453125 C 195.78125 152.335938 195.53125 152.164062 195.3125 151.945312 C 195.089844 151.726562 194.921875 151.472656 194.804688 151.183594 C 194.683594 150.898438 194.625 150.597656 194.625 150.289062 C 194.625 149.976562 194.683594 149.679688 194.804688 149.390625 C 194.921875 149.101562 195.089844 148.851562 195.3125 148.628906 C 195.53125 148.410156 195.78125 148.242188 196.070312 148.121094 C 196.355469 148.003906 196.652344 147.941406 196.960938 147.941406 C 197.273438 147.941406 197.570312 148.003906 197.855469 148.121094 C 198.144531 148.242188 198.394531 148.410156 198.613281 148.628906 C 198.832031 148.851562 199.003906 149.101562 199.121094 149.390625 C 199.238281 149.679688 199.300781 149.976562 199.300781 150.289062 Z M 199.300781 150.289062 " fill-opacity="1" fill-rule="nonzero"/><path fill="rgb(0%, 0%, 0%)" d="M 214.484375 164.824219 C 213.085938 164.121094 211.214844 165.292969 211.214844 166.9375 C 211.214844 168.34375 212.382812 169.28125 213.550781 169.28125 C 214.253906 169.28125 214.71875 169.046875 215.1875 168.578125 C 215.65625 168.109375 215.886719 167.640625 215.886719 166.9375 C 215.65625 166 215.1875 165.058594 214.484375 164.824219 Z M 214.484375 164.824219 " fill-opacity="1" fill-rule="nonzero"/><path fill="rgb(0%, 0%, 0%)" d="M 229.671875 159.902344 C 228.269531 159.902344 227.335938 161.074219 227.335938 162.246094 C 227.335938 163.417969 228.503906 164.589844 229.671875 164.589844 C 230.375 164.589844 230.839844 164.355469 231.308594 163.886719 C 231.777344 163.417969 232.011719 162.949219 232.011719 162.246094 C 232.011719 161.542969 231.777344 161.074219 231.308594 160.605469 C 230.839844 160.136719 230.375 159.902344 229.671875 159.902344 Z M 229.671875 159.902344 " fill-opacity="1" fill-rule="nonzero"/><path fill="rgb(0%, 0%, 0%)" d="M 162.148438 163.652344 C 161.914062 163.886719 161.914062 164.355469 161.914062 164.589844 C 161.914062 166 162.851562 166.9375 164.253906 166.9375 C 165.652344 166.9375 166.589844 165.765625 166.589844 164.589844 C 166.589844 163.886719 166.355469 163.417969 165.886719 162.949219 C 164.953125 162.011719 162.851562 162.246094 162.148438 163.652344 Z M 162.148438 163.652344 " fill-opacity="1" fill-rule="nonzero"/><path fill="rgb(0%, 0%, 0%)" d="M 219.160156 150.757812 C 218.925781 150.523438 218.457031 150.523438 218.226562 150.523438 C 216.824219 150.523438 215.886719 151.460938 215.886719 152.867188 C 215.886719 154.273438 217.054688 155.210938 218.226562 155.210938 C 218.925781 155.210938 219.394531 154.976562 219.859375 154.507812 C 220.328125 154.039062 220.5625 153.570312 220.5625 152.867188 C 220.328125 151.929688 219.859375 150.992188 219.160156 150.757812 Z M 219.160156 150.757812 " fill-opacity="1" fill-rule="nonzero"/><g clip-path="url(#id2)"><path fill="rgb(0%, 0%, 0%)" d="M 122.195312 221.570312 L 122.195312 227.902344 C 122.195312 233.761719 126.867188 240.5625 133.644531 240.5625 L 241.355469 240.5625 C 248.132812 240.5625 252.804688 233.761719 252.804688 227.667969 L 252.804688 221.335938 C 257.945312 220.164062 262.148438 214.769531 262.148438 208.90625 L 262.148438 206.328125 C 262.148438 200.230469 257.242188 195.777344 250.46875 195.777344 L 182.476562 195.777344 C 182.476562 195.777344 182.242188 195.777344 182.007812 195.777344 L 145.792969 207.96875 L 138.316406 200.699219 L 161.914062 200.699219 C 163.316406 200.699219 164.253906 199.761719 164.253906 198.355469 C 164.253906 196.949219 163.316406 196.011719 161.914062 196.011719 L 124.53125 196.011719 C 117.757812 196.011719 112.851562 200.464844 112.851562 206.5625 L 112.851562 209.140625 C 112.851562 215.003906 117.054688 220.164062 122.195312 221.570312 Z M 241.589844 235.871094 L 133.644531 235.871094 C 129.90625 235.871094 126.867188 231.417969 126.867188 227.667969 L 126.867188 221.804688 L 248.363281 221.804688 L 248.363281 227.667969 C 248.363281 231.417969 245.328125 235.871094 241.589844 235.871094 Z M 117.523438 206.5625 C 117.523438 202.578125 121.027344 200.699219 124.53125 200.699219 L 131.773438 200.699219 L 143.691406 212.660156 C 144.160156 213.128906 144.625 213.363281 145.328125 213.363281 C 145.558594 213.363281 145.792969 213.363281 146.027344 213.128906 L 183.410156 200.699219 L 250.703125 200.699219 C 254.207031 200.699219 257.710938 202.578125 257.710938 206.5625 L 257.710938 209.140625 C 257.710938 213.128906 254.207031 217.113281 250.703125 217.113281 L 124.53125 217.113281 C 121.027344 217.113281 117.523438 213.128906 117.523438 209.140625 Z M 117.523438 206.5625 " fill-opacity="1" fill-rule="nonzero"/></g><path fill="rgb(0%, 0%, 0%)" d="M 122.195312 187.804688 C 124.066406 187.804688 124.765625 188.273438 125.699219 188.742188 C 126.867188 189.445312 128.503906 190.148438 131.308594 190.148438 C 134.113281 190.148438 135.746094 189.445312 136.914062 188.742188 C 138.082031 188.273438 138.785156 187.804688 140.652344 187.804688 C 142.523438 187.804688 143.222656 188.273438 144.160156 188.742188 C 145.328125 189.445312 146.960938 190.148438 149.765625 190.148438 C 152.570312 190.148438 154.207031 189.445312 155.375 188.742188 C 156.542969 188.273438 157.242188 187.804688 159.113281 187.804688 C 160.980469 187.804688 161.683594 188.273438 162.617188 188.742188 C 163.785156 189.445312 165.421875 190.148438 168.222656 190.148438 C 171.027344 190.148438 172.664062 189.445312 173.832031 188.742188 C 175 188.273438 175.699219 187.804688 177.570312 187.804688 C 179.4375 187.804688 180.140625 188.273438 181.308594 188.742188 C 182.476562 189.445312 184.113281 190.148438 186.914062 190.148438 C 189.71875 190.148438 191.355469 189.445312 192.523438 188.742188 C 193.691406 188.273438 194.394531 187.804688 196.261719 187.804688 C 198.132812 187.804688 198.832031 188.273438 200 188.742188 C 201.167969 189.445312 202.804688 190.148438 205.609375 190.148438 C 208.410156 190.148438 210.046875 189.445312 211.214844 188.742188 C 212.382812 188.273438 213.085938 187.804688 214.953125 187.804688 C 216.824219 187.804688 217.523438 188.273438 218.691406 188.742188 C 219.859375 189.445312 221.496094 190.148438 224.300781 190.148438 C 227.101562 190.148438 228.738281 189.445312 229.90625 188.742188 C 231.074219 188.273438 231.777344 187.804688 233.644531 187.804688 C 235.515625 187.804688 236.214844 188.273438 237.382812 188.742188 C 238.550781 189.445312 240.1875 190.148438 242.992188 190.148438 C 245.796875 190.148438 247.429688 189.445312 248.597656 188.742188 C 249.765625 188.273438 250.46875 187.804688 252.335938 187.804688 C 253.738281 187.804688 254.671875 186.867188 254.671875 185.460938 C 254.671875 184.054688 253.738281 183.113281 252.335938 183.113281 C 249.535156 183.113281 247.898438 183.820312 246.730469 184.523438 C 245.5625 184.992188 244.859375 185.460938 242.992188 185.460938 C 241.121094 185.460938 240.421875 184.992188 239.253906 184.523438 C 238.085938 183.820312 236.449219 183.113281 233.410156 183.113281 C 230.609375 183.113281 228.972656 183.820312 227.804688 184.523438 C 226.636719 184.992188 225.933594 185.460938 224.066406 185.460938 C 222.195312 185.460938 221.496094 184.992188 220.328125 184.523438 C 219.160156 183.820312 217.523438 183.113281 214.71875 183.113281 C 211.917969 183.113281 210.28125 183.820312 209.113281 184.523438 C 207.945312 184.992188 207.242188 185.460938 205.375 185.460938 C 203.503906 185.460938 202.804688 184.992188 201.636719 184.523438 C 200.46875 183.820312 198.832031 183.113281 196.027344 183.113281 C 193.222656 183.113281 191.589844 183.820312 190.421875 184.523438 C 189.253906 184.992188 188.550781 185.460938 186.683594 185.460938 C 184.8125 185.460938 184.113281 184.992188 182.945312 184.523438 C 181.777344 183.820312 180.140625 183.113281 177.335938 183.113281 C 174.53125 183.113281 172.898438 183.820312 171.730469 184.523438 C 170.5625 184.992188 169.859375 185.460938 167.992188 185.460938 C 166.121094 185.460938 165.421875 184.992188 164.253906 184.523438 C 163.082031 183.820312 161.449219 183.113281 158.644531 183.113281 C 155.839844 183.113281 154.207031 183.820312 153.035156 184.523438 C 151.867188 184.992188 151.167969 185.460938 149.296875 185.460938 C 147.429688 185.460938 146.726562 184.992188 145.792969 184.523438 C 144.625 183.820312 142.988281 183.113281 140.1875 183.113281 C 137.382812 183.113281 135.746094 183.820312 134.578125 184.523438 C 133.410156 184.992188 132.710938 185.460938 130.839844 185.460938 C 128.972656 185.460938 128.269531 184.992188 127.335938 184.523438 C 126.167969 183.820312 124.53125 183.113281 121.726562 183.113281 C 120.328125 183.113281 119.390625 184.054688 119.390625 185.460938 C 119.390625 186.867188 121.027344 187.804688 122.195312 187.804688 Z M 122.195312 187.804688 " fill-opacity="1" fill-rule="nonzero"/></svg>