<svg xmlns="http://www.w3.org/2000/svg" xmlns:xlink="http://www.w3.org/1999/xlink" width="375" zoomAndPan="magnify" viewBox="0 0 375 374.999991" height="374.999991" preserveAspectRatio="xMidYMid meet" version="1.0"><path fill="rgb(13.729858%, 12.159729%, 12.548828%)" d="M 172.035156 204.917969 C 168.039062 204.003906 161.699219 198.601562 164.480469 193.6875 C 165.917969 192.132812 171.375 186.316406 175.933594 188.628906 C 179.304688 190.335938 182.023438 194.121094 182.277344 197.917969 C 182.628906 203.148438 176.464844 205.925781 172.035156 204.917969 Z M 176.910156 186.953125 C 171.941406 184.207031 165.007812 191.039062 164.878906 191.140625 C 157.839844 196.996094 163.964844 203.339844 169.050781 205.871094 C 174.5 208.585938 182.957031 206.308594 184.105469 199.648438 C 184.988281 194.550781 181.175781 189.3125 176.910156 186.953125 " fill-opacity="1" fill-rule="nonzero"/><path fill="rgb(13.729858%, 12.159729%, 12.548828%)" d="M 176.992188 198.855469 C 176.347656 200.222656 175.15625 201.359375 173.570312 200.851562 L 173.535156 200.824219 C 173.617188 200.730469 173.679688 200.621094 173.71875 200.488281 C 173.96875 199.597656 174.300781 198.746094 174.566406 197.875 C 174.605469 197.871094 174.648438 197.882812 174.691406 197.863281 C 175.453125 197.605469 176.257812 197.164062 177.058594 197.453125 C 177.199219 197.5 177.335938 197.503906 177.460938 197.488281 C 177.347656 197.976562 177.1875 198.449219 176.992188 198.855469 Z M 172.746094 193.511719 C 172.96875 193.429688 173.203125 193.371094 173.457031 193.328125 C 173.660156 193.292969 173.800781 193.199219 173.914062 193.089844 C 175.070312 192.875 176.242188 192.980469 176.980469 193.917969 C 176.714844 193.90625 176.4375 193.988281 176.222656 194.183594 C 176.269531 194.253906 176.3125 194.324219 176.359375 194.394531 C 176.160156 194.265625 175.957031 194.140625 175.746094 194.035156 C 175.261719 193.757812 174.726562 193.941406 174.421875 194.375 C 174.339844 194.496094 174.28125 194.636719 174.226562 194.769531 C 173.980469 194.71875 173.722656 194.777344 173.507812 194.910156 C 173.171875 194.511719 172.933594 194.058594 172.746094 193.511719 Z M 172.117188 196.820312 C 171.257812 197.082031 171.292969 198.125 171.824219 198.546875 L 171.816406 198.578125 C 171.804688 198.832031 171.886719 199.039062 172.027344 199.191406 C 171.976562 199.386719 171.929688 199.585938 171.890625 199.789062 C 170.558594 198.410156 170.191406 196.203125 171.152344 194.742188 C 171.496094 195.515625 171.957031 196.160156 172.582031 196.742188 C 172.4375 196.75 172.285156 196.769531 172.117188 196.820312 Z M 171.292969 191.867188 C 171 191.988281 170.792969 192.179688 170.683594 192.429688 C 169.585938 193.257812 168.839844 194.511719 168.628906 195.957031 C 168.285156 198.296875 169.582031 200.382812 171.371094 201.773438 C 173.605469 203.503906 176.332031 203.171875 178.019531 200.894531 C 179.484375 198.90625 180.054688 195.957031 179.050781 193.652344 C 177.675781 190.480469 173.992188 190.789062 171.292969 191.867188 " fill-opacity="1" fill-rule="nonzero"/><path fill="rgb(13.729858%, 12.159729%, 12.548828%)" d="M 202.703125 158.039062 C 200.96875 160.761719 199.398438 163.414062 199.875 167.113281 C 199.882812 167.175781 199.886719 167.234375 199.890625 167.292969 C 200.921875 171.90625 204.46875 172.378906 205.605469 172.695312 C 206.082031 172.824219 206.574219 172.8125 207.050781 172.863281 C 208.070312 172.460938 209.199219 172.253906 210.050781 171.539062 C 215.933594 166.660156 211.828125 160.148438 210.65625 159.542969 C 209.941406 159.179688 210.441406 158.027344 211.199219 158.257812 C 214.828125 159.382812 215.21875 163.539062 214.445312 166.753906 C 213.589844 170.300781 209.351562 178.316406 201.507812 173.109375 C 194.921875 167.40625 198.234375 159.113281 202.703125 158.039062 Z M 208.53125 175.832031 C 216.644531 173.480469 219.804688 157.089844 209.050781 156.761719 C 208.113281 156.734375 207.691406 158.128906 208.5625 158.570312 C 213.277344 160.921875 213.65625 169.550781 208.28125 171.492188 C 204.46875 172.871094 201.65625 169.210938 201.832031 165.796875 C 201.996094 162.5625 203.972656 159.171875 206.027344 156.761719 C 206.832031 155.824219 204.371094 155.753906 204.222656 155.941406 C 197.882812 155.761719 195.371094 162.128906 196.394531 167.667969 C 197.363281 172.863281 203.28125 177.359375 208.53125 175.832031 " fill-opacity="1" fill-rule="nonzero"/><path fill="rgb(13.729858%, 12.159729%, 12.548828%)" d="M 234.890625 235.257812 C 233.609375 236.707031 231.890625 236.441406 230.539062 235.222656 C 229.019531 233.867188 228.882812 231.605469 229.683594 230 C 231.996094 227.097656 234.644531 228.914062 235.789062 231.027344 C 236.503906 232.355469 235.804688 234.214844 234.890625 235.257812 Z M 234.445312 226.53125 C 229.679688 224.597656 225.976562 230.066406 227.605469 234.34375 C 228.738281 237.308594 232.382812 239.320312 235.25 237.484375 C 237.371094 236.128906 238.480469 233.171875 237.757812 230.761719 C 237.292969 229.238281 235.089844 226.792969 234.445312 226.53125 " fill-opacity="1" fill-rule="nonzero"/><path fill="rgb(13.729858%, 12.159729%, 12.548828%)" d="M 202.371094 186.464844 C 205.132812 183.953125 209.003906 182.492188 212.734375 183.246094 C 217.203125 184.136719 213.433594 191.84375 213.5625 192.238281 C 211.621094 194.824219 213.53125 198.792969 216.964844 200.054688 C 216.570312 201.699219 215.78125 204.367188 214.300781 203.023438 C 213.398438 202.203125 212.773438 201.003906 212.140625 199.980469 C 211.289062 198.613281 210.5 197.011719 209.128906 196.097656 C 208.683594 195.796875 208.058594 196.003906 207.800781 196.445312 C 205.738281 199.949219 201.796875 199.667969 199.476562 196.558594 C 196.800781 192.972656 199.699219 188.90625 202.371094 186.464844 Z M 208.835938 198.34375 C 210.824219 200.234375 211.527344 203.523438 213.914062 205.171875 C 217.042969 207.328125 218.609375 201.382812 219.050781 199.667969 C 219.179688 199.15625 218.886719 198.613281 218.375 198.472656 C 210.285156 196.648438 220.433594 189.316406 216.742188 183.355469 C 213.664062 178.371094 205.816406 181.234375 201.871094 184.402344 C 197.882812 187.601562 194.039062 193.792969 198.46875 198.414062 C 201.632812 201.71875 206.136719 201.792969 208.835938 198.34375 " fill-opacity="1" fill-rule="nonzero"/><path fill="rgb(13.729858%, 12.159729%, 12.548828%)" d="M 189.386719 169.59375 C 190.136719 169.347656 190.898438 168.941406 191.46875 168.386719 C 191.742188 168.128906 192.03125 167.699219 191.980469 167.296875 C 191.882812 166.554688 191.394531 166.230469 190.695312 166.152344 C 190.417969 166.117188 190.125 166.132812 189.828125 166.175781 C 190.074219 165.269531 188.652344 164.574219 188.019531 165.492188 C 187.375 166.441406 186.433594 167.820312 187.007812 169 C 187.441406 169.894531 188.589844 169.851562 189.386719 169.59375 " fill-opacity="1" fill-rule="nonzero"/><path fill="rgb(13.729858%, 12.159729%, 12.548828%)" d="M 214.582031 227.144531 C 213.589844 226.738281 211.886719 229.203125 211.941406 229.191406 C 212.003906 229.6875 212.050781 230.210938 212.425781 230.640625 C 213.179688 231.503906 214.550781 231.132812 215.488281 230.878906 C 215.894531 230.761719 216.207031 230.367188 216.199219 229.9375 C 216.171875 228.691406 215.792969 227.640625 214.582031 227.144531 " fill-opacity="1" fill-rule="nonzero"/><path fill="rgb(13.729858%, 12.159729%, 12.548828%)" d="M 208.453125 225.398438 C 208.339844 225.546875 208.242188 225.707031 208.148438 225.875 C 206.183594 225.257812 204.277344 224.503906 202.410156 223.632812 C 202.597656 223.21875 202.855469 222.820312 203.0625 222.398438 C 205.117188 222.925781 206.867188 223.992188 208.453125 225.398438 Z M 199.90625 224.582031 C 202.640625 225.941406 205.453125 227.121094 208.378906 227.984375 C 208.421875 228.003906 208.457031 227.992188 208.5 227.996094 C 208.863281 228.097656 211.007812 225.152344 210.558594 224.71875 C 208.347656 222.5625 205.796875 220.871094 202.714844 220.34375 C 202.042969 220.226562 198.839844 224.0625 199.90625 224.582031 " fill-opacity="1" fill-rule="nonzero"/><path fill="rgb(13.729858%, 12.159729%, 12.548828%)" d="M 188.601562 184.808594 C 188.65625 184.75 189.234375 184.292969 189.28125 184.21875 C 189.382812 184.042969 190.292969 183.03125 190.378906 182.851562 C 191.269531 185.632812 192.785156 190.054688 192.671875 192.933594 C 190.109375 193.722656 190.183594 186.957031 188.601562 184.808594 Z M 190.09375 181.105469 C 188.367188 181.105469 187.476562 183.617188 187.492188 183.792969 C 187.09375 184.125 186.910156 184.738281 187.351562 185.238281 C 189.113281 187.234375 189.601562 190.9375 189.984375 193.476562 C 190.121094 194.382812 193.292969 194.972656 193.5 193.882812 C 194.289062 189.710938 191.988281 185.769531 191.023438 181.816406 C 190.929688 181.402344 190.511719 181.105469 190.09375 181.105469 " fill-opacity="1" fill-rule="nonzero"/><path fill="rgb(13.729858%, 12.159729%, 12.548828%)" d="M 181.386719 177.992188 C 181.269531 177.542969 180.957031 176.035156 180.863281 175.570312 C 184.453125 175.746094 187.910156 174.351562 191.402344 173.457031 C 191.425781 173.542969 191.777344 174.207031 191.984375 174.621094 C 188.75 175.804688 181.496094 177.882812 181.386719 177.992188 Z M 193.5 174.082031 C 193.394531 173.382812 193.191406 172.726562 193.089844 172.019531 C 193.007812 171.480469 192.363281 171.238281 191.894531 171.339844 C 187.773438 172.257812 183.511719 174.445312 179.226562 173.40625 C 178.34375 173.195312 177.785156 174.070312 178.132812 174.832031 C 178.875 176.464844 179.296875 178.21875 180.191406 179.777344 C 180.8125 180.867188 189.3125 176.582031 192.824219 175.277344 C 193.363281 175.074219 193.582031 174.644531 193.5 174.082031 " fill-opacity="1" fill-rule="nonzero"/><path fill="rgb(13.729858%, 12.159729%, 12.548828%)" d="M 226.285156 215.820312 C 225.820312 217.710938 224.4375 219.265625 222.359375 218.953125 C 222.304688 218.945312 222.253906 218.929688 222.199219 218.921875 L 222.265625 218.835938 C 223.042969 218.429688 222.898438 217.003906 221.824219 217.003906 C 220.964844 217.003906 220.484375 217.480469 220.453125 218.324219 C 219.539062 217.828125 218.78125 217.074219 218.429688 216.054688 C 217.71875 214.015625 218.632812 211.503906 220.59375 210.597656 C 220.738281 210.886719 220.996094 211.105469 221.410156 211.105469 C 222.511719 211.105469 222.640625 209.605469 221.808594 209.246094 C 223.042969 208.8125 224.324219 208.824219 225.355469 209.976562 C 226.679688 211.464844 226.734375 214.003906 226.285156 215.820312 Z M 227.113281 209.113281 C 224.925781 205.9375 221.121094 206.957031 218.449219 208.886719 C 218.046875 209.179688 217.964844 209.628906 218.078125 210.011719 C 216.886719 211.230469 216.308594 213.007812 216.285156 214.75 C 216.25 217.300781 217.800781 219.230469 220.03125 220.234375 C 223.082031 221.625 226.304688 220.742188 227.707031 217.589844 C 228.867188 214.976562 228.761719 211.5 227.113281 209.113281 " fill-opacity="1" fill-rule="nonzero"/><path fill="rgb(13.729858%, 12.159729%, 12.548828%)" d="M 212.0625 211.257812 C 212.003906 211.917969 211.832031 212.589844 211.523438 213.132812 C 211.417969 213.320312 211.238281 213.503906 211.140625 213.574219 C 211.050781 213.625 210.824219 213.664062 210.78125 213.660156 C 209.925781 213.527344 209.207031 212.71875 208.652344 212.101562 C 207.992188 211.371094 207.78125 210.339844 207.960938 209.402344 C 208.214844 209.371094 208.46875 209.238281 208.648438 208.972656 C 208.867188 208.648438 209.105469 208.324219 209.359375 208.023438 C 209.335938 208.519531 209.636719 209.042969 210.285156 209.042969 L 210.699219 209.042969 C 211.945312 209.042969 211.945312 207.101562 210.699219 207.101562 L 210.382812 207.101562 C 210.453125 207.0625 210.515625 207.003906 210.59375 206.960938 C 210.925781 206.789062 211.019531 206.839844 211.34375 207.210938 C 212.085938 208.058594 212.171875 210 212.0625 211.257812 Z M 213.851562 212.304688 C 214.285156 210.199219 214.105469 207.570312 212.714844 205.84375 C 211.671875 204.550781 210.421875 204.792969 209.3125 205.542969 C 209.085938 205.46875 208.832031 205.460938 208.5625 205.582031 C 206.363281 206.597656 205.632812 209.234375 206.160156 211.453125 C 206.535156 213.023438 208.035156 214.570312 209.484375 215.253906 C 211.800781 216.355469 213.410156 214.429688 213.851562 212.304688 " fill-opacity="1" fill-rule="nonzero"/><path fill="rgb(13.729858%, 12.159729%, 12.548828%)" d="M 221.410156 213.289062 C 220.164062 213.289062 220.164062 215.230469 221.410156 215.230469 C 222.660156 215.230469 222.660156 213.289062 221.410156 213.289062 " fill-opacity="1" fill-rule="nonzero"/><path fill="rgb(13.729858%, 12.159729%, 12.548828%)" d="M 225.265625 212.613281 L 225.265625 212.195312 C 225.265625 210.945312 223.328125 210.945312 223.328125 212.195312 L 223.328125 212.613281 C 223.328125 213.863281 225.265625 213.863281 225.265625 212.613281 " fill-opacity="1" fill-rule="nonzero"/><path fill="rgb(13.729858%, 12.159729%, 12.548828%)" d="M 219.351562 212.878906 C 218.105469 212.878906 218.105469 214.8125 219.351562 214.8125 C 220.601562 214.8125 220.601562 212.878906 219.351562 212.878906 " fill-opacity="1" fill-rule="nonzero"/><path fill="rgb(13.729858%, 12.159729%, 12.548828%)" d="M 225.121094 216.878906 C 226.367188 216.878906 226.367188 214.941406 225.121094 214.941406 C 223.871094 214.941406 223.871094 216.878906 225.121094 216.878906 " fill-opacity="1" fill-rule="nonzero"/><path fill="rgb(13.729858%, 12.159729%, 12.548828%)" d="M 210.285156 209.574219 C 209.035156 209.574219 209.035156 211.519531 210.285156 211.519531 C 211.535156 211.519531 211.535156 209.574219 210.285156 209.574219 " fill-opacity="1" fill-rule="nonzero"/><path fill="rgb(13.729858%, 12.159729%, 12.548828%)" d="M 154.652344 206.691406 C 153.40625 206.691406 153.40625 208.625 154.652344 208.625 C 155.902344 208.625 155.902344 206.691406 154.652344 206.691406 " fill-opacity="1" fill-rule="nonzero"/><path fill="rgb(13.729858%, 12.159729%, 12.548828%)" d="M 155.066406 203.386719 L 154.652344 203.386719 C 153.40625 203.386719 153.40625 205.328125 154.652344 205.328125 L 155.066406 205.328125 C 156.316406 205.328125 156.316406 203.386719 155.066406 203.386719 " fill-opacity="1" fill-rule="nonzero"/><path fill="rgb(13.729858%, 12.159729%, 12.548828%)" d="M 158.777344 204.917969 C 160.023438 204.917969 160.023438 202.976562 158.777344 202.976562 C 157.527344 202.976562 157.527344 204.917969 158.777344 204.917969 " fill-opacity="1" fill-rule="nonzero"/><path fill="rgb(13.729858%, 12.159729%, 12.548828%)" d="M 160.835938 209.042969 C 162.082031 209.042969 162.082031 207.101562 160.835938 207.101562 C 159.585938 207.101562 159.585938 209.042969 160.835938 209.042969 " fill-opacity="1" fill-rule="nonzero"/><path fill="rgb(13.729858%, 12.159729%, 12.548828%)" d="M 158.5 205.734375 C 158.390625 205.832031 158.101562 205.902344 157.921875 205.960938 C 157.632812 206.058594 157.386719 206.191406 157.144531 206.355469 C 157.074219 206.390625 157.027344 206.433594 156.972656 206.480469 L 156.855469 206.5625 L 156.847656 206.574219 L 156.828125 206.597656 C 156.46875 206.945312 156.492188 207.363281 156.707031 207.6875 C 156.839844 207.980469 157.113281 208.214844 157.539062 208.214844 C 157.824219 208.214844 158.039062 208.105469 158.191406 207.953125 L 158.222656 207.929688 C 158.335938 207.835938 158.628906 207.769531 158.804688 207.703125 C 159.207031 207.5625 159.554688 207.386719 159.875 207.105469 C 160.808594 206.277344 159.4375 204.917969 158.5 205.734375 " fill-opacity="1" fill-rule="nonzero"/><path fill="rgb(13.729858%, 12.159729%, 12.548828%)" d="M 157.386719 189.59375 C 160.261719 184.867188 163.808594 180.648438 167.996094 177.039062 C 168.84375 177.46875 169.640625 178.03125 170.269531 178.738281 C 167.210938 182.335938 161.980469 192.375 157.386719 189.59375 Z M 172.234375 179.460938 C 172.535156 179.175781 172.625 178.636719 172.386719 178.285156 C 171.410156 176.847656 169.914062 175.734375 168.332031 175.050781 C 167.894531 174.867188 167.527344 174.890625 167.15625 175.203125 C 162.496094 179.117188 158.589844 183.789062 155.464844 189.015625 C 155.15625 189.539062 155.890625 190.9375 156.226562 191.164062 C 162.910156 195.722656 168.578125 182.960938 172.234375 179.460938 " fill-opacity="1" fill-rule="nonzero"/><path fill="rgb(13.729858%, 12.159729%, 12.548828%)" d="M 224.292969 181.34375 C 226.039062 184.773438 231.0625 192.152344 228.539062 196.132812 C 225.847656 191.78125 224.355469 186.859375 222.59375 182.074219 C 223.128906 181.773438 223.699219 181.53125 224.292969 181.34375 Z M 220.480469 181.921875 C 222.570312 187.484375 224.183594 193.292969 227.582031 198.238281 C 227.953125 198.785156 228.609375 198.867188 229.101562 198.4375 C 234.140625 194.085938 228.71875 185.585938 226.238281 180.890625 C 225.265625 179.71875 224.296875 178.121094 220.921875 180.828125 C 220.605469 181.078125 220.324219 181.519531 220.480469 181.921875 " fill-opacity="1" fill-rule="nonzero"/><path fill="rgb(13.729858%, 12.159729%, 12.548828%)" d="M 212.644531 152.636719 C 214.554688 153.046875 215.441406 150.789062 215.75 149.320312 C 215.878906 148.730469 215.480469 148.078125 214.820312 148.09375 C 214.03125 148.121094 213.246094 148.300781 212.503906 148.546875 C 212.449219 148.5625 212.417969 148.59375 212.371094 148.613281 C 211.953125 147.847656 210.539062 147.988281 210.554688 149.066406 C 210.574219 150.433594 211.09375 152.304688 212.644531 152.636719 " fill-opacity="1" fill-rule="nonzero"/><path fill="rgb(13.729858%, 12.159729%, 12.548828%)" d="M 218.527344 170.667969 C 219.710938 170.65625 221.875 170.542969 221.632812 168.828125 C 221.5625 168.328125 221.191406 167.980469 220.722656 167.71875 C 220.792969 166.808594 219.453125 166.183594 218.929688 167.140625 C 218.886719 167.132812 218.832031 167.125 218.785156 167.113281 C 218.265625 167.019531 217.746094 167.246094 217.59375 167.789062 C 217.519531 168.066406 217.597656 168.386719 217.773438 168.636719 C 217.640625 168.964844 217.570312 169.320312 217.558594 169.695312 C 217.542969 170.222656 218.011719 170.667969 218.527344 170.667969 " fill-opacity="1" fill-rule="nonzero"/><path fill="rgb(13.729858%, 12.159729%, 12.548828%)" d="M 242.480469 243.226562 C 242.363281 243.359375 242.203125 243.453125 242.03125 243.539062 C 242.027344 243.246094 242.058594 242.964844 242.171875 242.746094 C 242.1875 242.734375 242.277344 242.621094 242.164062 242.710938 C 242.21875 242.671875 242.28125 242.640625 242.339844 242.605469 C 242.40625 242.6875 242.472656 242.75 242.523438 242.835938 C 242.625 243.011719 242.613281 243.074219 242.480469 243.226562 Z M 240.511719 241.722656 C 239.929688 242.570312 240.097656 243.851562 240.222656 244.796875 C 240.308594 245.433594 240.773438 245.875 241.449219 245.730469 C 243.082031 245.375 244.863281 244.378906 244.425781 242.433594 C 244.097656 240.960938 240.535156 241.6875 240.511719 241.722656 " fill-opacity="1" fill-rule="nonzero"/><path fill="rgb(13.729858%, 12.159729%, 12.548828%)" d="M 218.667969 235.03125 C 218.304688 235.363281 217.808594 235.511719 217.433594 235.859375 L 217.398438 235.894531 C 217.054688 236.242188 217.074219 236.652344 217.28125 236.972656 C 217.417969 237.273438 217.6875 237.511719 218.117188 237.511719 C 218.398438 237.511719 218.609375 237.402344 218.761719 237.25 L 218.796875 237.226562 C 219.160156 236.898438 219.660156 236.742188 220.035156 236.402344 C 220.960938 235.558594 219.589844 234.191406 218.667969 235.03125 " fill-opacity="1" fill-rule="nonzero"/><path fill="rgb(13.729858%, 12.159729%, 12.548828%)" d="M 251.933594 255.621094 C 252.15625 255.625 252.382812 255.5625 252.589844 255.382812 C 253.203125 254.84375 253.601562 254.265625 253.84375 253.675781 C 254.210938 255.046875 254.492188 256.429688 254.621094 257.835938 C 253.742188 257.066406 252.84375 256.332031 251.933594 255.621094 Z M 250.335938 258.800781 C 250.53125 258.308594 250.761719 257.835938 251.03125 257.378906 C 251.804688 257.984375 252.570312 258.605469 253.3125 259.261719 C 252.367188 259.265625 251.359375 259.085938 250.335938 258.800781 Z M 248.488281 258.191406 C 247.808594 257.9375 247.136719 257.660156 246.488281 257.371094 C 246.914062 256.570312 247.351562 255.777344 247.78125 254.984375 C 248.351562 255.371094 248.914062 255.777344 249.472656 256.1875 C 249.078125 256.820312 248.75 257.496094 248.488281 258.191406 Z M 244.726562 256.566406 C 244.023438 256.234375 243.371094 255.921875 242.804688 255.671875 C 243.300781 254.679688 243.816406 253.707031 244.375 252.753906 C 244.980469 253.125 245.574219 253.507812 246.167969 253.894531 C 245.691406 254.785156 245.195312 255.667969 244.726562 256.566406 Z M 250.964844 254.894531 C 248.585938 253.117188 246.117188 251.527344 243.578125 250.0625 C 244.6875 249.113281 246.699219 248.214844 247.789062 248.363281 C 247.507812 248.65625 247.222656 248.9375 246.933594 249.222656 C 246.460938 249.234375 245.992188 249.546875 245.992188 250.160156 L 245.992188 250.566406 L 245.996094 250.582031 L 246.011719 250.667969 C 246.050781 251.054688 246.277344 251.320312 246.578125 251.4375 L 246.601562 251.449219 L 246.625 251.453125 C 246.917969 251.589844 247.265625 251.5625 247.570312 251.308594 L 247.636719 251.265625 L 247.648438 251.257812 C 248.195312 250.707031 248.746094 250.15625 249.292969 249.605469 C 249.503906 249.398438 249.578125 249.160156 249.570312 248.933594 C 250.132812 249.210938 250.640625 249.582031 251.058594 250 C 250.945312 250.007812 250.839844 250.035156 250.738281 250.085938 C 250.402344 250.207031 250.21875 250.496094 250.167969 250.828125 C 250.160156 250.878906 250.148438 250.925781 250.148438 250.984375 L 250.148438 250.988281 C 250.140625 251.082031 250.164062 251.171875 250.191406 251.265625 C 249.019531 251.335938 249.035156 253.1875 250.257812 253.1875 C 250.664062 253.1875 250.925781 252.976562 251.066406 252.699219 C 251.117188 252.769531 251.164062 252.839844 251.222656 252.90625 C 251.421875 253.128906 251.644531 253.210938 251.867188 253.210938 C 251.71875 253.488281 251.511719 253.753906 251.222656 254.007812 C 250.914062 254.28125 250.871094 254.605469 250.964844 254.894531 Z M 241.8125 249.070312 C 236.066406 245.933594 229.992188 243.410156 223.855469 240.996094 C 226.71875 238.679688 223.976562 234.503906 221.792969 233.160156 C 217.867188 230.742188 213.859375 232.265625 212.332031 236.457031 C 208.6875 234.976562 205.078125 233.414062 201.5625 231.664062 C 196.390625 229.09375 191.425781 226.230469 186.40625 223.472656 C 189.914062 224.398438 193.472656 223.835938 196.15625 220.878906 C 198.921875 217.839844 199.585938 213.15625 197.929688 209.449219 C 195.871094 204.835938 189.816406 204.1875 185.742188 206.152344 C 180.746094 208.5625 178.515625 215.335938 180.539062 220.34375 C 177.945312 219.007812 175.308594 217.746094 172.589844 216.597656 C 169.417969 215.265625 166.222656 213.980469 163.023438 212.71875 C 163.410156 212.339844 163.710938 211.921875 163.949219 211.484375 C 164.050781 211.5 164.160156 211.5 164.269531 211.488281 C 164.359375 211.695312 164.480469 211.894531 164.660156 212.054688 C 165.5 212.820312 166.589844 212.390625 167.371094 211.789062 C 168.015625 211.28125 168.589844 210.472656 168.398438 209.621094 C 168.175781 208.632812 167.183594 208.574219 166.300781 208.730469 C 166.597656 207.617188 165.023438 207.117188 164.539062 208.015625 C 164.230469 205.1875 162.378906 202.195312 160.257812 200.574219 C 155.160156 196.6875 147.546875 202.085938 149.992188 207.503906 C 146.972656 206.253906 143.964844 204.976562 140.992188 203.609375 C 141.320312 202.761719 141.460938 201.949219 141.433594 201.160156 C 149.542969 187.371094 162.726562 176.863281 174.492188 166.371094 C 182.316406 159.382812 190.457031 152.3125 199.199219 146.492188 C 203.371094 143.714844 209.871094 142.042969 213.273438 138.09375 C 217.480469 148.152344 219.566406 158.980469 223.355469 169.210938 C 227.425781 180.179688 231.265625 190.75 233.929688 202.171875 C 236.398438 212.746094 239.207031 223.273438 243.949219 233.085938 C 246.292969 237.933594 249.5625 242.945312 251.882812 248.203125 C 248.214844 244.503906 244.171875 246.21875 241.8125 249.070312 Z M 241.015625 254.925781 C 240.519531 254.726562 240.027344 254.53125 239.53125 254.34375 C 240.03125 253.1875 240.761719 252.125 241.332031 250.988281 C 241.792969 251.246094 242.25 251.503906 242.707031 251.765625 C 242.105469 252.796875 241.550781 253.859375 241.015625 254.925781 Z M 235.828125 253.042969 C 236.613281 251.808594 237.300781 250.515625 238.046875 249.257812 C 238.585938 249.523438 239.121094 249.804688 239.65625 250.082031 C 239.085938 251.328125 238.289062 252.445312 237.726562 253.691406 C 237.097656 253.46875 236.464844 253.257812 235.828125 253.042969 Z M 232.300781 251.910156 C 232.207031 251.890625 232.113281 251.855469 232.023438 251.824219 C 232.8125 250.378906 233.667969 248.96875 234.367188 247.476562 C 235.015625 247.773438 235.664062 248.085938 236.304688 248.394531 C 235.519531 249.746094 234.789062 251.125 233.929688 252.421875 C 233.386719 252.253906 232.847656 252.085938 232.300781 251.910156 Z M 227.503906 250.378906 C 228.402344 248.792969 229.289062 247.210938 230.195312 245.636719 C 231.003906 245.976562 231.804688 246.324219 232.605469 246.683594 C 231.859375 248.238281 230.953125 249.699219 230.148438 251.222656 C 229.265625 250.9375 228.378906 250.671875 227.503906 250.378906 Z M 223.078125 248.855469 C 223.914062 247.160156 224.707031 245.433594 225.546875 243.726562 C 226.5 244.113281 227.449219 244.496094 228.394531 244.882812 C 227.46875 246.5 226.5625 248.121094 225.640625 249.734375 C 224.78125 249.441406 223.929688 249.160156 223.078125 248.855469 Z M 221.265625 248.207031 C 220.566406 247.960938 219.867188 247.707031 219.171875 247.449219 C 219.183594 247.375 219.214844 247.3125 219.210938 247.21875 C 219.195312 246.457031 219.886719 245.539062 220.253906 244.914062 C 220.722656 244.097656 221.230469 243.273438 221.8125 242.53125 C 221.867188 242.460938 221.90625 242.382812 221.941406 242.316406 C 222.542969 242.546875 223.144531 242.785156 223.746094 243.023438 C 222.914062 244.714844 222.125 246.429688 221.285156 248.121094 Z M 217.3125 246.75 C 216.378906 246.394531 215.441406 246.050781 214.503906 245.683594 C 214.503906 245.644531 214.515625 245.613281 214.503906 245.570312 C 214.414062 245.121094 215.335938 243.753906 215.621094 243.261719 C 216.148438 242.347656 216.714844 241.402344 217.4375 240.636719 L 217.46875 240.589844 C 218.351562 240.929688 219.238281 241.273438 220.121094 241.609375 C 219.515625 242.433594 218.960938 243.277344 218.449219 244.160156 C 218.011719 244.914062 217.457031 245.832031 217.3125 246.75 Z M 222.539062 237.132812 L 222.519531 237.105469 L 222.507812 237.09375 C 222.191406 236.742188 221.800781 236.726562 221.480469 236.878906 C 221.140625 237.007812 220.957031 237.300781 220.910156 237.632812 C 220.902344 237.679688 220.890625 237.726562 220.886719 237.773438 L 220.890625 237.808594 C 220.890625 237.941406 220.921875 238.074219 220.984375 238.199219 C 221.027344 238.292969 221.070312 238.382812 221.132812 238.457031 L 221.140625 238.46875 C 221.296875 238.640625 221.265625 238.773438 221.269531 239.019531 C 221.269531 239.332031 221.335938 239.703125 221.4375 240.050781 C 218.996094 239.101562 216.550781 238.15625 214.117188 237.183594 C 215.167969 234.066406 217.640625 233.1875 220.511719 234.667969 C 221.351562 235.097656 225.082031 237.859375 223.394531 239.007812 C 223.296875 239.070312 223.226562 239.152344 223.160156 239.234375 C 223.175781 239.160156 223.207031 239.101562 223.207031 239.019531 C 223.203125 238.28125 223.019531 237.683594 222.539062 237.132812 Z M 212.679688 244.964844 C 211.742188 244.597656 210.804688 244.234375 209.871094 243.855469 C 210.433594 243.058594 210.945312 242.222656 211.453125 241.386719 C 211.792969 240.820312 212.132812 240.253906 212.476562 239.683594 C 212.589844 239.5 212.703125 239.320312 212.820312 239.140625 L 212.863281 239.074219 C 212.960938 239.023438 213.027344 238.949219 213.085938 238.867188 C 213.914062 239.199219 214.742188 239.523438 215.570312 239.847656 C 214.902344 240.679688 214.335938 241.609375 213.808594 242.523438 C 213.402344 243.21875 212.878906 244.089844 212.679688 244.964844 Z M 208.066406 243.128906 C 207.253906 242.796875 206.441406 242.464844 205.632812 242.128906 C 205.996094 240.300781 207.085938 238.328125 208.347656 236.925781 C 209.269531 237.320312 210.199219 237.703125 211.125 238.078125 C 210.761719 238.605469 210.460938 239.28125 210.265625 239.601562 C 209.578125 240.742188 208.914062 242.015625 208.113281 243.050781 Z M 201.179688 240.265625 C 201.71875 239.234375 202.34375 238.257812 202.894531 237.238281 C 203.113281 236.835938 203.339844 236.433594 203.570312 236.035156 C 203.671875 235.859375 203.78125 235.679688 203.890625 235.5 C 203.917969 235.453125 203.9375 235.433594 203.957031 235.398438 C 203.886719 235.464844 203.761719 235.542969 203.59375 235.570312 L 203.570312 235.554688 C 203.816406 235.476562 204.039062 235.328125 204.175781 235.085938 C 204.945312 235.4375 205.71875 235.777344 206.492188 236.117188 C 205.269531 237.621094 204.230469 239.546875 203.816406 241.371094 C 202.9375 241.003906 202.058594 240.636719 201.179688 240.265625 Z M 197.867188 238.839844 C 197.621094 238.734375 197.378906 238.625 197.132812 238.511719 C 197.617188 237.8125 198 237.039062 198.398438 236.277344 C 198.691406 235.714844 199.328125 234.003906 200.007812 233.820312 C 200.304688 233.742188 200.496094 233.566406 200.597656 233.351562 C 201.183594 233.648438 201.773438 233.9375 202.363281 234.226562 C 202.011719 234.691406 201.738281 235.339844 201.542969 235.675781 C 200.824219 236.949219 200.042969 238.1875 199.398438 239.5 C 198.886719 239.28125 198.378906 239.058594 197.867188 238.839844 Z M 191.785156 236.15625 C 193.125 234.386719 193.800781 232.175781 195.324219 230.546875 C 196.449219 231.15625 197.570312 231.757812 198.707031 232.367188 C 198.074219 232.871094 197.636719 233.667969 197.253906 234.332031 C 196.621094 235.433594 196.144531 236.742188 195.324219 237.722656 C 194.144531 237.199219 192.964844 236.683594 191.785156 236.15625 Z M 189.976562 235.363281 C 189.238281 235.027344 188.496094 234.714844 187.757812 234.378906 C 189.097656 232.46875 190.355469 230.507812 191.695312 228.605469 C 192.320312 228.941406 192.953125 229.269531 193.574219 229.613281 C 192.164062 231.363281 191.519531 233.601562 190.019531 235.285156 Z M 182.503906 232.019531 C 184.066406 230.175781 185.289062 228.078125 186.8125 226.207031 C 186.859375 226.148438 186.898438 226.089844 186.929688 226.027344 C 187.949219 226.578125 188.96875 227.128906 189.984375 227.679688 C 188.621094 229.625 187.339844 231.628906 185.964844 233.578125 C 184.8125 233.058594 183.65625 232.539062 182.503906 232.019531 Z M 185.867188 210.828125 L 185.859375 210.875 C 184.894531 212.207031 184.257812 213.804688 184.050781 215.449219 C 183.457031 220.09375 188.191406 222.53125 192.128906 221.199219 C 192.84375 220.957031 193.519531 220.609375 194.140625 220.191406 C 191.574219 222.589844 187.90625 222.3125 184.8125 220.851562 C 184.582031 220.742188 184.363281 220.734375 184.160156 220.78125 C 183.628906 220.597656 183.058594 220.417969 182.644531 220.085938 C 182.605469 220.050781 182.554688 220.035156 182.511719 220.007812 C 180.367188 215.613281 182.644531 210.214844 186.71875 207.824219 C 187.386719 207.429688 188.113281 207.183594 188.855469 207.042969 C 187.492188 207.964844 186.449219 209.257812 185.867188 210.828125 Z M 192.945312 216.429688 C 193.390625 215.800781 193.363281 213.351562 192.933594 211.78125 C 192.542969 211.34375 192.113281 210.945312 191.652344 210.566406 C 190.554688 211.316406 189.777344 212.4375 188.90625 213.421875 C 188.402344 213.996094 187.714844 214.523438 187.714844 215.359375 C 187.71875 216.101562 187.8125 216.828125 187.867188 217.566406 C 187.917969 218.332031 186.957031 218.585938 186.464844 218.152344 C 185.097656 216.929688 185.121094 215.105469 185.804688 213.539062 C 185.914062 210.46875 189.171875 207.09375 192.355469 208.027344 C 193.335938 208.082031 194.285156 208.859375 194.921875 209.703125 C 195.558594 210.550781 195.910156 211.578125 196.0625 212.660156 C 196.191406 213.167969 196.210938 213.664062 196.140625 214.152344 C 196.125 214.796875 196.054688 215.429688 195.929688 216.019531 C 195.824219 216.507812 195.472656 216.703125 195.097656 216.703125 C 194.898438 216.992188 194.683594 217.289062 194.441406 217.582031 C 193.769531 218.429688 192.324219 217.3125 192.945312 216.429688 Z M 189.855469 217.578125 C 190 218.035156 190.203125 218.46875 190.492188 218.875 C 190.8125 219.316406 191.269531 219.355469 191.710938 219.171875 C 191.5 219.265625 191.292969 219.4375 191.089844 219.507812 C 189.539062 220.03125 188.207031 219.683594 187.292969 218.839844 C 187.617188 218.945312 188.003906 218.90625 188.304688 218.660156 C 188.796875 218.257812 189.328125 217.921875 189.855469 217.578125 Z M 191.886719 216.992188 C 191.832031 217.023438 191.785156 217.050781 191.730469 217.074219 C 191.59375 216.710938 191.507812 216.328125 191.472656 215.90625 C 191.402344 215.058594 190.480469 214.640625 189.820312 215.226562 C 189.695312 215.335938 189.558594 215.441406 189.421875 215.539062 C 189.734375 215.058594 190.058594 214.59375 190.398438 214.132812 C 190.582031 214.664062 191.296875 214.992188 191.804688 214.699219 C 191.777344 215.15625 191.742188 215.613281 191.632812 216.066406 C 191.558594 216.390625 191.667969 216.75 191.886719 216.992188 Z M 177.46875 229.742188 C 178.957031 227.765625 180.214844 225.605469 181.941406 223.8125 C 182.039062 223.714844 182.101562 223.605469 182.144531 223.496094 C 183.175781 224.027344 184.203125 224.578125 185.226562 225.121094 C 183.660156 227.109375 182.398438 229.324219 180.679688 231.195312 C 179.609375 230.710938 178.535156 230.226562 177.46875 229.742188 Z M 175.691406 228.933594 C 174.734375 228.5 173.78125 228.066406 172.828125 227.632812 C 174.746094 225.707031 175.957031 223.183594 178.0625 221.425781 L 178.074219 221.410156 C 178.859375 221.800781 179.636719 222.214844 180.421875 222.613281 C 178.613281 224.535156 177.332031 226.851562 175.699219 228.917969 Z M 170.9375 226.773438 C 170.203125 226.4375 169.46875 226.101562 168.734375 225.773438 C 170.25 223.507812 171.898438 221.304688 173.988281 219.53125 L 174.042969 219.460938 C 174.773438 219.804688 175.496094 220.15625 176.21875 220.503906 C 174.242188 222.40625 173.097656 225.058594 170.9375 226.773438 Z M 163.65625 223.464844 C 165.824219 221.6875 167.738281 219.609375 169.460938 217.402344 C 170.371094 217.792969 171.261719 218.199219 172.15625 218.605469 C 170.121094 220.441406 168.460938 222.679688 166.949219 224.960938 C 165.851562 224.460938 164.753906 223.957031 163.65625 223.464844 Z M 161.726562 222.589844 C 161 222.265625 160.277344 221.933594 159.550781 221.613281 C 161.046875 219.566406 162.328125 217.140625 164.445312 215.707031 C 164.554688 215.625 164.632812 215.542969 164.699219 215.449219 C 165.5625 215.800781 166.425781 216.136719 167.285156 216.480469 C 167.398438 216.53125 167.503906 216.574219 167.613281 216.621094 C 165.902344 218.742188 164.023438 220.753906 161.882812 222.441406 C 161.816406 222.492188 161.765625 222.542969 161.726562 222.589844 Z M 157.765625 220.8125 C 156.960938 220.457031 156.167969 220.085938 155.363281 219.738281 C 156.214844 218.96875 157.042969 218.175781 157.738281 217.261719 C 158.515625 216.234375 159.207031 214.941406 160.367188 214.308594 C 160.554688 214.207031 160.664062 214.066406 160.742188 213.921875 C 160.804688 213.933594 160.863281 213.957031 160.933594 213.957031 C 161.511719 214.183594 162.089844 214.414062 162.667969 214.640625 C 160.667969 216.332031 159.410156 218.695312 157.804688 220.75 Z M 150.960938 217.804688 C 152.5625 215.867188 153.824219 213.675781 155.460938 211.765625 C 156.554688 212.207031 157.648438 212.644531 158.746094 213.082031 C 157.925781 213.726562 157.304688 214.59375 156.695312 215.429688 C 155.75 216.738281 154.617188 217.816406 153.414062 218.882812 C 152.59375 218.523438 151.78125 218.15625 150.960938 217.804688 Z M 158.363281 209.164062 C 157.566406 209.164062 157.28125 209.953125 157.507812 210.523438 C 156.917969 210.292969 156.324219 210.050781 155.734375 209.820312 C 155.574219 209.691406 155.386719 209.605469 155.1875 209.597656 C 154.351562 209.273438 153.511719 208.9375 152.683594 208.601562 C 152.730469 208.34375 152.679688 208.058594 152.453125 207.800781 C 150.167969 205.183594 152.175781 202.054688 155.074219 201.226562 C 156.9375 200.699219 158.796875 201.730469 160.109375 202.96875 C 162.457031 205.183594 164.03125 209.871094 160.898438 211.875 C 160.1875 211.59375 159.472656 211.300781 158.757812 211.023438 C 159.59375 210.664062 159.464844 209.164062 158.363281 209.164062 Z M 146.703125 215.96875 C 148.410156 214.199219 149.847656 212.183594 151.613281 210.472656 C 151.679688 210.410156 151.703125 210.347656 151.75 210.285156 C 152.355469 210.523438 152.96875 210.769531 153.574219 211.011719 C 152.027344 212.964844 150.769531 215.136719 149.097656 217 C 148.300781 216.65625 147.503906 216.308594 146.703125 215.96875 Z M 144.8125 215.171875 C 143.878906 214.78125 142.945312 214.375 142.003906 213.988281 C 142.777344 213.117188 143.691406 212.382812 144.398438 211.445312 C 145.214844 210.363281 145.867188 209.203125 146.859375 208.273438 C 147.855469 208.695312 148.859375 209.09375 149.863281 209.503906 C 148.121094 211.285156 146.667969 213.335938 144.878906 215.074219 Z M 137.296875 212.054688 C 139.238281 210.410156 140.707031 208.324219 142.367188 206.390625 L 142.398438 206.34375 C 143.246094 206.710938 144.105469 207.078125 144.953125 207.445312 C 144.207031 208.277344 143.597656 209.214844 142.960938 210.144531 C 142.164062 211.296875 141.039062 212.148438 140.148438 213.226562 C 139.199219 212.839844 138.25 212.4375 137.296875 212.054688 Z M 135.347656 211.257812 C 134.339844 210.820312 133.648438 210.707031 132.984375 210.910156 C 132.4375 211.070312 131.882812 211.164062 131.320312 211.1875 C 132.414062 210.15625 133.386719 208.996094 134.386719 207.855469 C 136.152344 205.832031 137.886719 203.785156 139.589844 201.707031 C 139.792969 203.671875 139.976562 205.46875 140.085938 205.308594 C 140.246094 205.386719 140.410156 205.457031 140.578125 205.53125 C 139.023438 207.410156 137.59375 209.476562 135.628906 210.945312 C 135.503906 211.035156 135.410156 211.140625 135.347656 211.257812 Z M 128.867188 210.746094 C 128.820312 210.777344 128.78125 210.816406 128.742188 210.851562 C 127.894531 210.597656 127.066406 210.214844 126.277344 209.714844 C 130.105469 205.75 133.613281 201.496094 137.199219 197.3125 C 138.015625 197.957031 138.65625 198.679688 139.0625 199.476562 C 138.941406 199.527344 138.820312 199.609375 138.714844 199.746094 C 137.164062 201.648438 135.578125 203.523438 133.980469 205.390625 C 132.40625 207.234375 130.851562 209.320312 128.867188 210.746094 Z M 123.128906 206.804688 C 126.542969 203.210938 128.644531 198.589844 132.230469 195.140625 C 132.285156 195.089844 132.308594 195.019531 132.351562 194.960938 C 133.496094 195.296875 134.589844 195.730469 135.5625 196.257812 C 132.015625 200.410156 128.53125 204.613281 124.726562 208.539062 C 124.152344 208.023438 123.613281 207.4375 123.128906 206.804688 Z M 121.183594 203.039062 C 121.316406 202.96875 121.441406 202.863281 121.542969 202.710938 C 123.234375 200.015625 124.835938 197.234375 126.960938 194.84375 C 127.128906 194.648438 127.1875 194.4375 127.195312 194.230469 C 128.171875 194.21875 129.183594 194.308594 130.195312 194.472656 C 127.113281 197.730469 125.074219 201.816406 122.054688 205.113281 C 121.707031 204.453125 121.414062 203.769531 121.183594 203.039062 Z M 121.171875 196.179688 C 121.300781 196.132812 121.429688 196.074219 121.546875 195.964844 C 122.363281 195.226562 123.488281 194.742188 124.773438 194.472656 C 123.257812 196.351562 121.957031 198.382812 120.683594 200.421875 C 120.582031 199.050781 120.71875 197.613281 121.171875 196.179688 Z M 131.667969 174.714844 C 136.472656 168.109375 141.914062 161.941406 147.425781 155.921875 C 162.28125 139.703125 181.445312 128.425781 200.25 117.4375 C 200.371094 117.453125 200.503906 117.445312 200.652344 117.402344 C 208.980469 114.964844 218.378906 127.925781 213.796875 134.671875 C 213.164062 136.566406 210.515625 137.640625 210.5625 137.976562 C 208.714844 139.378906 206.238281 140.386719 204.453125 141.347656 C 200.941406 143.21875 197.691406 145.136719 194.496094 147.527344 C 186.742188 153.332031 179.285156 159.492188 172.058594 165.941406 C 160.960938 175.851562 148.71875 185.804688 140.722656 198.578125 C 137.933594 193.355469 127.722656 190.558594 121.957031 193.414062 C 122.816406 186.558594 127.765625 180.074219 131.667969 174.714844 Z M 248.601562 237.75 C 242.664062 226.820312 239.078125 215.382812 236.195312 203.328125 C 233.328125 191.359375 229.585938 180.195312 225.222656 168.6875 C 221.230469 158.164062 219.15625 147.003906 214.742188 136.644531 C 221.699219 128.875 210.65625 112.492188 200.164062 115.527344 C 199.957031 115.480469 199.730469 115.492188 199.496094 115.632812 C 179.652344 127.222656 159.851562 139.167969 144.34375 156.433594 C 139.042969 162.339844 133.898438 168.375 129.222656 174.789062 C 125.121094 180.433594 120.328125 187.308594 119.921875 194.539062 C 119.75 194.648438 119.601562 194.792969 119.519531 195.019531 C 115.9375 204.667969 123.675781 215.253906 133.78125 212.710938 L 133.792969 212.71875 C 157.507812 221.941406 180.1875 233.542969 203.632812 243.394531 C 214.53125 247.972656 225.613281 251.667969 236.84375 255.308594 C 242.4375 257.117188 250.140625 262.492188 256.515625 260.488281 C 258.859375 259.746094 252.035156 244.058594 248.601562 237.75 " fill-opacity="1" fill-rule="nonzero"/><path fill="rgb(13.729858%, 12.159729%, 12.548828%)" d="M 233.222656 211.230469 C 233.316406 211.132812 233.371094 211.03125 233.417969 210.925781 C 233.488281 210.914062 233.5625 210.894531 233.632812 210.894531 C 233.746094 210.894531 233.761719 210.910156 233.808594 210.9375 C 233.71875 210.886719 233.855469 211.054688 233.824219 210.96875 C 234.03125 211.535156 233.796875 212.425781 233.488281 213.214844 C 233.371094 213.523438 233.125 213.945312 232.90625 214.269531 C 232.855469 214.339844 232.769531 214.445312 232.628906 214.585938 L 232.574219 214.628906 L 232.546875 214.59375 C 232.234375 214.003906 231.980469 213.621094 232.132812 212.921875 C 232.277344 212.257812 232.769531 211.703125 233.222656 211.230469 Z M 230.929688 211.03125 C 230.324219 211.980469 230.011719 213.039062 230.246094 214.246094 C 230.40625 215.105469 231.109375 216.285156 231.992188 216.59375 C 233.375 217.074219 234.488281 215.542969 235.023438 214.488281 C 235.671875 213.214844 236.164062 211.523438 235.5625 210.144531 C 234.773438 208.332031 232.542969 209.023438 231.226562 209.710938 C 230.644531 210.011719 230.644531 210.605469 230.929688 211.03125 " fill-opacity="1" fill-rule="nonzero"/><path fill="rgb(13.729858%, 12.159729%, 12.548828%)" d="M 201.433594 203.027344 C 201.09375 201.789062 199.714844 201.21875 198.59375 200.945312 C 197.8125 200.761719 197.332031 201.457031 197.398438 202.066406 C 197.242188 203.132812 197.136719 204.582031 198.066406 205.359375 C 198.761719 205.949219 199.773438 205.964844 200.503906 205.414062 C 201.253906 204.851562 201.6875 203.964844 201.433594 203.027344 " fill-opacity="1" fill-rule="nonzero"/><path fill="rgb(13.729858%, 12.159729%, 12.548828%)" d="M 175.671875 212.878906 L 175.257812 212.878906 C 174.011719 212.878906 174.011719 214.8125 175.257812 214.8125 L 175.671875 214.8125 C 176.917969 214.8125 176.917969 212.878906 175.671875 212.878906 " fill-opacity="1" fill-rule="nonzero"/><path fill="rgb(13.729858%, 12.159729%, 12.548828%)" d="M 199.574219 179.453125 C 198.324219 179.453125 198.324219 181.394531 199.574219 181.394531 L 199.984375 181.394531 C 201.234375 181.394531 201.234375 179.453125 199.984375 179.453125 L 199.574219 179.453125 " fill-opacity="1" fill-rule="nonzero"/><path fill="rgb(13.729858%, 12.159729%, 12.548828%)" d="M 184.324219 183.167969 L 183.914062 183.167969 C 182.664062 183.167969 182.664062 185.109375 183.914062 185.109375 L 184.324219 185.109375 C 185.574219 185.109375 185.574219 183.167969 184.324219 183.167969 " fill-opacity="1" fill-rule="nonzero"/><path fill="rgb(13.729858%, 12.159729%, 12.548828%)" d="M 180.613281 171.90625 C 181.863281 171.90625 181.863281 169.960938 180.613281 169.960938 C 179.367188 169.960938 179.367188 171.90625 180.613281 171.90625 " fill-opacity="1" fill-rule="nonzero"/><path fill="rgb(13.729858%, 12.159729%, 12.548828%)" d="M 194.625 156.351562 L 194.214844 156.351562 C 192.964844 156.351562 192.964844 158.289062 194.214844 158.289062 L 194.625 158.289062 C 195.875 158.289062 195.875 156.351562 194.625 156.351562 " fill-opacity="1" fill-rule="nonzero"/></svg>